REM DIRINDEX 1\4,1\2\5,1\2\6,1\2\7,1\3\8,1\3\9,1\3\10,1\3\11
REM DIRNAME cjc108,folder01,folder02,folder03,folder04,folder05,folder06,folder07,folder08,folder09,folder10
TITLE ""
FILE "t_k_267-278.mp3" MP3
  TRACK 01 AUDIO
    TITLE "5:cjc108_0802"
    INDEX 01 00:00:00
  TRACK 02 AUDIO
    TITLE "0:"
    INDEX 01 00:00:70
  TRACK 03 AUDIO
    TITLE "6:cjc108_0803"
    INDEX 01 00:01:05
  TRACK 04 AUDIO
    TITLE "0:"
    INDEX 01 00:03:08
  TRACK 05 AUDIO
    TITLE "7:cjc108_0804"
    INDEX 01 00:03:21
  TRACK 06 AUDIO
    TITLE "0:"
    INDEX 01 00:08:01
  TRACK 07 AUDIO
    TITLE "5:cjc108_0805"
    INDEX 01 00:08:64
  TRACK 08 AUDIO
    TITLE "0:"
    INDEX 01 00:09:65
  TRACK 09 AUDIO
    TITLE "6:cjc108_0806"
    INDEX 01 00:09:67
  TRACK 10 AUDIO
    TITLE "0:"
    INDEX 01 00:10:70
  TRACK 11 AUDIO
    TITLE "7:cjc108_0807"
    INDEX 01 00:11:05
  TRACK 12 AUDIO
    TITLE "0:"
    INDEX 01 00:17:43
  TRACK 13 AUDIO
    TITLE "5:cjc108_0808"
    INDEX 01 00:18:31
  TRACK 14 AUDIO
    TITLE "0:"
    INDEX 01 00:19:34
  TRACK 15 AUDIO
    TITLE "6:cjc108_0809"
    INDEX 01 00:19:50
  TRACK 16 AUDIO
    TITLE "0:"
    INDEX 01 00:21:58
  TRACK 17 AUDIO
    TITLE "7:cjc108_0810"
    INDEX 01 00:22:07
  TRACK 18 AUDIO
    TITLE "0:"
    INDEX 01 00:28:19
  TRACK 19 AUDIO
    TITLE "5:cjc108_0811"
    INDEX 01 00:29:01
  TRACK 20 AUDIO
    TITLE "0:"
    INDEX 01 00:30:01
  TRACK 21 AUDIO
    TITLE "6:cjc108_0812"
    INDEX 01 00:30:20
  TRACK 22 AUDIO
    TITLE "0:"
    INDEX 01 00:33:07
  TRACK 23 AUDIO
    TITLE "7:cjc108_0813"
    INDEX 01 00:33:21
  TRACK 24 AUDIO
    TITLE "0:"
    INDEX 01 00:38:30
  TRACK 25 AUDIO
    TITLE "5:cjc108_0814"
    INDEX 01 00:39:05
  TRACK 26 AUDIO
    TITLE "0:"
    INDEX 01 00:40:24
  TRACK 27 AUDIO
    TITLE "6:cjc108_0815"
    INDEX 01 00:40:38
  TRACK 28 AUDIO
    TITLE "0:"
    INDEX 01 00:42:37
  TRACK 29 AUDIO
    TITLE "7:cjc108_0816"
    INDEX 01 00:42:47
  TRACK 30 AUDIO
    TITLE "0:"
    INDEX 01 00:45:73
  TRACK 31 AUDIO
    TITLE "5:cjc108_0817"
    INDEX 01 00:46:58
  TRACK 32 AUDIO
    TITLE "0:"
    INDEX 01 00:47:58
  TRACK 33 AUDIO
    TITLE "6:cjc108_0818"
    INDEX 01 00:47:72
  TRACK 34 AUDIO
    TITLE "0:"
    INDEX 01 00:51:01
  TRACK 35 AUDIO
    TITLE "7:cjc108_0819"
    INDEX 01 00:51:15
  TRACK 36 AUDIO
    TITLE "0:"
    INDEX 01 00:57:58
  TRACK 37 AUDIO
    TITLE "5:cjc108_0820"
    INDEX 01 00:58:34
  TRACK 38 AUDIO
    TITLE "0:"
    INDEX 01 00:59:55
  TRACK 39 AUDIO
    TITLE "6:cjc108_0821"
    INDEX 01 00:59:69
  TRACK 40 AUDIO
    TITLE "0:"
    INDEX 01 01:02:50
  TRACK 41 AUDIO
    TITLE "7:cjc108_0822"
    INDEX 01 01:02:55
  TRACK 42 AUDIO
    TITLE "0:"
    INDEX 01 01:06:55
  TRACK 43 AUDIO
    TITLE "5:cjc108_0823"
    INDEX 01 01:07:39
  TRACK 44 AUDIO
    TITLE "0:"
    INDEX 01 01:08:46
  TRACK 45 AUDIO
    TITLE "6:cjc108_0824"
    INDEX 01 01:08:52
  TRACK 46 AUDIO
    TITLE "0:"
    INDEX 01 01:09:52
  TRACK 47 AUDIO
    TITLE "7:cjc108_0825"
    INDEX 01 01:10:00
  TRACK 48 AUDIO
    TITLE "0:"
    INDEX 01 01:15:13
  TRACK 49 AUDIO
    TITLE "5:cjc108_0826"
    INDEX 01 01:16:07
  TRACK 50 AUDIO
    TITLE "0:"
    INDEX 01 01:17:14
  TRACK 51 AUDIO
    TITLE "6:cjc108_0827"
    INDEX 01 01:17:18
  TRACK 52 AUDIO
    TITLE "0:"
    INDEX 01 01:19:25
  TRACK 53 AUDIO
    TITLE "7:cjc108_0828"
    INDEX 01 01:19:44
  TRACK 54 AUDIO
    TITLE "0:"
    INDEX 01 01:25:49
  TRACK 55 AUDIO
    TITLE "5:cjc108_0829"
    INDEX 01 01:26:32
  TRACK 56 AUDIO
    TITLE "0:"
    INDEX 01 01:27:46
  TRACK 57 AUDIO
    TITLE "6:cjc108_0830"
    INDEX 01 01:27:73
  TRACK 58 AUDIO
    TITLE "0:"
    INDEX 01 01:28:61
  TRACK 59 AUDIO
    TITLE "7:cjc108_0831"
    INDEX 01 01:29:11
  TRACK 60 AUDIO
    TITLE "0:"
    INDEX 01 01:33:07
  TRACK 61 AUDIO
    TITLE "5:cjc108_0832"
    INDEX 01 01:33:60
  TRACK 62 AUDIO
    TITLE "0:"
    INDEX 01 01:34:67
  TRACK 63 AUDIO
    TITLE "6:cjc108_0833"
    INDEX 01 01:34:71
  TRACK 64 AUDIO
    TITLE "0:"
    INDEX 01 01:35:61
  TRACK 65 AUDIO
    TITLE "7:cjc108_0834"
    INDEX 01 01:36:03
  TRACK 66 AUDIO
    TITLE "0:"
    INDEX 01 01:40:01
  TRACK 67 AUDIO
    TITLE "5:cjc108_0835"
    INDEX 01 01:40:48
  TRACK 68 AUDIO
    TITLE "0:"
    INDEX 01 01:41:52
  TRACK 69 AUDIO
    TITLE "6:cjc108_0836"
    INDEX 01 01:41:59
  TRACK 70 AUDIO
    TITLE "0:"
    INDEX 01 01:43:74
  TRACK 71 AUDIO
    TITLE "7:cjc108_0837"
    INDEX 01 01:44:11
  TRACK 72 AUDIO
    TITLE "0:"
    INDEX 01 01:49:55
